<?xml version="1.0" encoding="UTF-8" standalone="no"?>
<!-- Created with Inkscape (http://www.inkscape.org/) -->

<svg
   width="105mm"
   height="57mm"
   viewBox="0 0 105 57"
   version="1.1"
   id="svg1"
   xml:space="preserve"
   inkscape:version="1.3.2 (091e20ef0f, 2023-11-25, custom)"
   sodipodi:docname="logo.svg"
   xmlns:inkscape="http://www.inkscape.org/namespaces/inkscape"
   xmlns:sodipodi="http://sodipodi.sourceforge.net/DTD/sodipodi-0.dtd"
   xmlns="http://www.w3.org/2000/svg"
   xmlns:svg="http://www.w3.org/2000/svg"><sodipodi:namedview
     id="namedview1"
     pagecolor="#ffffff"
     bordercolor="#000000"
     borderopacity="0.25"
     inkscape:showpageshadow="2"
     inkscape:pageopacity="0.0"
     inkscape:pagecheckerboard="0"
     inkscape:deskcolor="#d1d1d1"
     inkscape:document-units="mm"
     inkscape:zoom="2.0000001"
     inkscape:cx="266.99999"
     inkscape:cy="60.749998"
     inkscape:window-width="2036"
     inkscape:window-height="2093"
     inkscape:window-x="0"
     inkscape:window-y="0"
     inkscape:window-maximized="0"
     inkscape:current-layer="layer1" /><defs
     id="defs1" /><g
     inkscape:label="Layer 1"
     inkscape:groupmode="layer"
     id="layer1"><g
       id="g8"><circle
         style="fill:#cb3c33;fill-opacity:1;stroke:none;stroke-width:4;stroke-linecap:round;stroke-linejoin:round;stroke-dasharray:none"
         id="path1-1-8-9-0"
         cx="34.999996"
         cy="53.499992"
         r="3.5" /><circle
         style="fill:#389826;fill-opacity:1;stroke:none;stroke-width:4;stroke-linecap:round;stroke-linejoin:round;stroke-dasharray:none"
         id="path1-9-6-8-9-4-6"
         cx="52.499996"
         cy="3.9999928"
         r="3.9999998" /><circle
         style="fill:#9558b2;fill-opacity:1;stroke:none;stroke-width:4;stroke-linecap:round;stroke-linejoin:round;stroke-dasharray:none"
         id="path1-9-4-3-7-7-7-3"
         cx="87.499992"
         cy="3.9999928"
         r="3.9999998" /><path
         id="path6-9-3-8-2"
         style="fill:#99a2a6;fill-opacity:1;stroke-width:1"
         d="m 54.267877,56.911248 c 4.90813,-0.51436 9.30575,-2.98551 12.22025,-6.8669 3.01071,-4.00951 4.15654,-9.09834 3.16142,-14.04029 -1.24171,-6.16657 -5.6656,-11.15346 -11.64164,-13.12318 -0.83852,-0.27638 -1.51416,-0.44751 -2.35851,-0.5974 -0.95874,-0.1702 -1.39704,-0.26764 -1.6052,-0.35686 -0.45991,-0.19714 -0.64827,-0.4641 -0.62148,-0.88079 0.0226,-0.35174 0.16095,-0.60864 0.52876,-0.98203 0.17158,-0.17417 2.7043,-2.29834 5.62828,-4.7204 3.50265,-2.90138 5.43897,-4.53276 5.67583,-4.78195 0.48936,-0.51486 0.66363,-0.86131 0.6869,-1.36554 0.0136,-0.29485 5.6e-4,-0.40066 -0.0737,-0.59753 -0.17985,-0.47708 -0.56392,-0.8383 -1.05023,-0.98776 -0.65459,-0.20117 -1.3315,0.0322 -2.27653,0.78456 -0.52135,0.41511 -20.62966,17.09383 -21.20537,17.58866 -1.66255,1.42902 -2.8457,2.81075 -3.85199,4.49855 -3.5001,5.87054 -3.2877,13.23342 0.54463,18.87932 2.26953,3.34353 5.66143,5.81046 9.52335,6.92632 1.41035,0.40751 2.35368,0.56442 4.2284,0.70335 0.39158,0.0291 1.91302,-0.02 2.48679,-0.0802 z m -2.4661,-3.3556 c -3.43448,-0.20243 -6.58742,-1.5829 -9.05138,-3.96304 -2.32239,-2.24339 -3.76092,-5.09337 -4.20957,-8.33986 -0.0924,-0.66826 -0.12501,-2.13537 -0.0637,-2.86232 0.24205,-2.87101 1.30649,-5.50418 3.14111,-7.77034 0.46367,-0.57273 1.52587,-1.6291 2.09528,-2.08379 0.82013,-0.65487 1.95926,-1.36922 2.81937,-1.76802 4.49599,-2.08466 9.61884,-1.70946 13.68798,1.00249 0.89353,0.59552 1.4536,1.05305 2.19514,1.79323 2.26809,2.26394 3.66026,5.10968 4.05864,8.29623 0.0953,0.76206 0.0963,2.49888 0.002,3.25154 -0.28396,2.26434 -1.02385,4.26607 -2.26929,6.13937 -0.55474,0.83441 -1.02286,1.40398 -1.77162,2.15555 -2.28239,2.29098 -5.20905,3.71547 -8.35839,4.06826 -0.57876,0.0648 -1.80619,0.10836 -2.27547,0.0807 z" /><path
         id="path6-2-2-6-4-0"
         style="fill:#99a2a6;fill-opacity:1;stroke-width:1"
         d="m 89.267877,56.911248 c 4.90813,-0.51436 9.30575,-2.98551 12.220253,-6.8669 3.01071,-4.00951 4.15654,-9.09834 3.16142,-14.04029 -1.24171,-6.16657 -5.665603,-11.15346 -11.641643,-13.12318 -0.83852,-0.27638 -1.51416,-0.44751 -2.35851,-0.5974 -0.95874,-0.1702 -1.39704,-0.26764 -1.6052,-0.35686 -0.45991,-0.19714 -0.64827,-0.4641 -0.62148,-0.88079 0.0226,-0.35174 0.16095,-0.60864 0.52876,-0.98203 0.17158,-0.17417 2.7043,-2.29834 5.62828,-4.7204 3.50265,-2.90138 5.438973,-4.53276 5.675833,-4.78195 0.48936,-0.51486 0.66363,-0.86131 0.6869,-1.36554 0.0136,-0.29485 5.6e-4,-0.40066 -0.0737,-0.59753 -0.17985,-0.47708 -0.56392,-0.8383 -1.050233,-0.98776 -0.65459,-0.20117 -1.3315,0.0322 -2.27653,0.78456 -0.52135,0.41511 -20.62966,17.09383 -21.20537,17.58866 -1.66255,1.42902 -2.8457,2.81075 -3.85199,4.49855 -3.5001,5.87054 -3.2877,13.23342 0.54463,18.87932 2.26953,3.34353 5.66143,5.81046 9.52335,6.92632 1.41035,0.40751 2.35368,0.56442 4.2284,0.70335 0.39158,0.0291 1.91302,-0.02 2.48679,-0.0802 z m -2.4661,-3.3556 c -3.43448,-0.20243 -6.58742,-1.5829 -9.05138,-3.96304 -2.32239,-2.24339 -3.76092,-5.09337 -4.20957,-8.33986 -0.0924,-0.66826 -0.12501,-2.13537 -0.0637,-2.86232 0.24205,-2.87101 1.30649,-5.50418 3.14111,-7.77034 0.46367,-0.57273 1.52587,-1.6291 2.09528,-2.08379 0.82013,-0.65487 1.95926,-1.36922 2.81937,-1.76802 4.49599,-2.08466 9.61884,-1.70946 13.68798,1.00249 0.89353,0.59552 1.4536,1.05305 2.19514,1.79323 2.26809,2.26394 3.660263,5.10968 4.058643,8.29623 0.0953,0.76206 0.0963,2.49888 0.002,3.25154 -0.28396,2.26434 -1.02385,4.26607 -2.269293,6.13937 -0.55474,0.83441 -1.02286,1.40398 -1.77162,2.15555 -2.28239,2.29098 -5.20905,3.71547 -8.35839,4.06826 -0.57876,0.0648 -1.80619,0.10836 -2.27547,0.0807 z" /><path
         id="path3-0-1-5-6"
         style="fill:#99a2a6;fill-opacity:1;stroke-width:0.999999"
         d="m 19.268677,56.914278 c 4.95979,-0.51802 9.35967,-3.0119 12.29517,-6.96902 2.94206,-3.96595 4.06953,-9.04308 3.09191,-13.92318 -0.99466,-4.96519 -4.08895,-9.2439 -8.49912,-11.75238 -3.91715,-2.22805 -8.66047,-2.85062 -13.04951,-1.71277 -4.36073,1.13052 -8.05306,3.82942 -10.43871,7.63011 -0.43653,0.69547 -1.13277,2.07111 -1.42448,2.81456 -1.84356,4.69829 -1.63088,9.84632 0.59086,14.30187 1.17261,2.35157 2.70895,4.26401 4.71289,5.86657 2.7977,2.23733 6.21795,3.55687 9.86652,3.80655 0.70991,0.0485 2.07892,0.0187 2.85447,-0.0623 z m -2.42009,-3.35272 c -2.23587,-0.13574 -4.28428,-0.72404 -6.14295,-1.76423 -1.5248,-0.85335 -2.01898,-1.38356 -1.97687,-2.12102 0.0234,-0.40874 0.14299,-0.63195 0.5678,-1.05937 0.31369,-0.3156 17.87067,-14.91029 18.59757,-15.45971 0.73026,-0.55195 1.44595,-0.56237 1.97942,-0.0288 0.68832,0.68842 1.41471,2.94666 1.64285,5.10729 0.0587,0.55567 0.0585,1.95564 -3.3e-4,2.54465 -0.39056,3.91094 -2.32991,7.4239 -5.4315,9.83869 -2.02136,1.57374 -4.46431,2.56868 -7.02274,2.86013 -0.57024,0.065 -1.76665,0.10948 -2.21325,0.0824 z m -11.21102,-7.35377 c -0.0683,-0.0268 -0.18219,-0.0804 -0.25318,-0.11926 -0.72285,-0.39536 -1.57365,-2.68886 -1.86166,-5.01852 -0.0976,-0.78865 -0.0974,-2.30596 2.4e-4,-3.12393 0.49162,-4.1192 2.68013,-7.73739 6.087,-10.06345 1.95619,-1.3356 4.17681,-2.14408 6.57672,-2.39444 0.59087,-0.0616 2.07245,-0.0616 2.62693,8e-5 2.37947,0.26471 4.49014,1.0073 6.32229,2.22431 0.84996,0.5646 1.14508,0.96282 1.14457,1.54444 -3.9e-4,0.44375 -0.1285,0.6992 -0.56883,1.13432 -0.37782,0.37334 -18.36331,15.30119 -18.73624,15.55098 -0.43137,0.28892 -0.99356,0.40048 -1.33784,0.26547 z" /></g><g
       id="g12"><circle
         style="fill:#cb3c33;fill-opacity:1;stroke:none;stroke-width:4;stroke-linecap:round;stroke-linejoin:round;stroke-dasharray:none"
         id="circle8"
         cx="34.999996"
         cy="53.499992"
         r="3.5" /><circle
         style="fill:#389826;fill-opacity:1;stroke:none;stroke-width:4;stroke-linecap:round;stroke-linejoin:round;stroke-dasharray:none"
         id="circle9"
         cx="52.499996"
         cy="3.9999928"
         r="3.9999998" /><circle
         style="fill:#9558b2;fill-opacity:1;stroke:none;stroke-width:4;stroke-linecap:round;stroke-linejoin:round;stroke-dasharray:none"
         id="circle10"
         cx="87.499992"
         cy="3.9999928"
         r="3.9999998" /><path
         id="path10"
         style="fill:#99a2a6;fill-opacity:1;stroke-width:1"
         d="m 54.267877,56.911248 c 4.90813,-0.51436 9.30575,-2.98551 12.22025,-6.8669 3.01071,-4.00951 4.15654,-9.09834 3.16142,-14.04029 -1.24171,-6.16657 -5.6656,-11.15346 -11.64164,-13.12318 -0.83852,-0.27638 -1.51416,-0.44751 -2.35851,-0.5974 -0.95874,-0.1702 -1.39704,-0.26764 -1.6052,-0.35686 -0.45991,-0.19714 -0.64827,-0.4641 -0.62148,-0.88079 0.0226,-0.35174 0.16095,-0.60864 0.52876,-0.98203 0.17158,-0.17417 2.7043,-2.29834 5.62828,-4.7204 3.50265,-2.90138 5.43897,-4.53276 5.67583,-4.78195 0.48936,-0.51486 0.66363,-0.86131 0.6869,-1.36554 0.0136,-0.29485 5.6e-4,-0.40066 -0.0737,-0.59753 -0.17985,-0.47708 -0.56392,-0.8383 -1.05023,-0.98776 -0.65459,-0.20117 -1.3315,0.0322 -2.27653,0.78456 -0.52135,0.41511 -20.62966,17.09383 -21.20537,17.58866 -1.66255,1.42902 -2.8457,2.81075 -3.85199,4.49855 -3.5001,5.87054 -3.2877,13.23342 0.54463,18.87932 2.26953,3.34353 5.66143,5.81046 9.52335,6.92632 1.41035,0.40751 2.35368,0.56442 4.2284,0.70335 0.39158,0.0291 1.91302,-0.02 2.48679,-0.0802 z m -2.4661,-3.3556 c -3.43448,-0.20243 -6.58742,-1.5829 -9.05138,-3.96304 -2.32239,-2.24339 -3.76092,-5.09337 -4.20957,-8.33986 -0.0924,-0.66826 -0.12501,-2.13537 -0.0637,-2.86232 0.24205,-2.87101 1.30649,-5.50418 3.14111,-7.77034 0.46367,-0.57273 1.52587,-1.6291 2.09528,-2.08379 0.82013,-0.65487 1.95926,-1.36922 2.81937,-1.76802 4.49599,-2.08466 9.61884,-1.70946 13.68798,1.00249 0.89353,0.59552 1.4536,1.05305 2.19514,1.79323 2.26809,2.26394 3.66026,5.10968 4.05864,8.29623 0.0953,0.76206 0.0963,2.49888 0.002,3.25154 -0.28396,2.26434 -1.02385,4.26607 -2.26929,6.13937 -0.55474,0.83441 -1.02286,1.40398 -1.77162,2.15555 -2.28239,2.29098 -5.20905,3.71547 -8.35839,4.06826 -0.57876,0.0648 -1.80619,0.10836 -2.27547,0.0807 z" /><path
         id="path11"
         style="fill:#99a2a6;fill-opacity:1;stroke-width:1"
         d="m 89.267877,56.911248 c 4.90813,-0.51436 9.30575,-2.98551 12.220253,-6.8669 3.01071,-4.00951 4.15654,-9.09834 3.16142,-14.04029 -1.24171,-6.16657 -5.665603,-11.15346 -11.641643,-13.12318 -0.83852,-0.27638 -1.51416,-0.44751 -2.35851,-0.5974 -0.95874,-0.1702 -1.39704,-0.26764 -1.6052,-0.35686 -0.45991,-0.19714 -0.64827,-0.4641 -0.62148,-0.88079 0.0226,-0.35174 0.16095,-0.60864 0.52876,-0.98203 0.17158,-0.17417 2.7043,-2.29834 5.62828,-4.7204 3.50265,-2.90138 5.438973,-4.53276 5.675833,-4.78195 0.48936,-0.51486 0.66363,-0.86131 0.6869,-1.36554 0.0136,-0.29485 5.6e-4,-0.40066 -0.0737,-0.59753 -0.17985,-0.47708 -0.56392,-0.8383 -1.050233,-0.98776 -0.65459,-0.20117 -1.3315,0.0322 -2.27653,0.78456 -0.52135,0.41511 -20.62966,17.09383 -21.20537,17.58866 -1.66255,1.42902 -2.8457,2.81075 -3.85199,4.49855 -3.5001,5.87054 -3.2877,13.23342 0.54463,18.87932 2.26953,3.34353 5.66143,5.81046 9.52335,6.92632 1.41035,0.40751 2.35368,0.56442 4.2284,0.70335 0.39158,0.0291 1.91302,-0.02 2.48679,-0.0802 z m -2.4661,-3.3556 c -3.43448,-0.20243 -6.58742,-1.5829 -9.05138,-3.96304 -2.32239,-2.24339 -3.76092,-5.09337 -4.20957,-8.33986 -0.0924,-0.66826 -0.12501,-2.13537 -0.0637,-2.86232 0.24205,-2.87101 1.30649,-5.50418 3.14111,-7.77034 0.46367,-0.57273 1.52587,-1.6291 2.09528,-2.08379 0.82013,-0.65487 1.95926,-1.36922 2.81937,-1.76802 4.49599,-2.08466 9.61884,-1.70946 13.68798,1.00249 0.89353,0.59552 1.4536,1.05305 2.19514,1.79323 2.26809,2.26394 3.660263,5.10968 4.058643,8.29623 0.0953,0.76206 0.0963,2.49888 0.002,3.25154 -0.28396,2.26434 -1.02385,4.26607 -2.269293,6.13937 -0.55474,0.83441 -1.02286,1.40398 -1.77162,2.15555 -2.28239,2.29098 -5.20905,3.71547 -8.35839,4.06826 -0.57876,0.0648 -1.80619,0.10836 -2.27547,0.0807 z" /><path
         id="path12"
         style="fill:#99a2a6;fill-opacity:1;stroke-width:0.999999"
         d="m 19.268677,56.914278 c 4.95979,-0.51802 9.35967,-3.0119 12.29517,-6.96902 2.94206,-3.96595 4.06953,-9.04308 3.09191,-13.92318 -0.99466,-4.96519 -4.08895,-9.2439 -8.49912,-11.75238 -3.91715,-2.22805 -8.66047,-2.85062 -13.04951,-1.71277 -4.36073,1.13052 -8.05306,3.82942 -10.43871,7.63011 -0.43653,0.69547 -1.13277,2.07111 -1.42448,2.81456 -1.84356,4.69829 -1.63088,9.84632 0.59086,14.30187 1.17261,2.35157 2.70895,4.26401 4.71289,5.86657 2.7977,2.23733 6.21795,3.55687 9.86652,3.80655 0.70991,0.0485 2.07892,0.0187 2.85447,-0.0623 z m -2.42009,-3.35272 c -2.23587,-0.13574 -4.28428,-0.72404 -6.14295,-1.76423 -1.5248,-0.85335 -2.01898,-1.38356 -1.97687,-2.12102 0.0234,-0.40874 0.14299,-0.63195 0.5678,-1.05937 0.31369,-0.3156 17.87067,-14.91029 18.59757,-15.45971 0.73026,-0.55195 1.44595,-0.56237 1.97942,-0.0288 0.68832,0.68842 1.41471,2.94666 1.64285,5.10729 0.0587,0.55567 0.0585,1.95564 -3.3e-4,2.54465 -0.39056,3.91094 -2.32991,7.4239 -5.4315,9.83869 -2.02136,1.57374 -4.46431,2.56868 -7.02274,2.86013 -0.57024,0.065 -1.76665,0.10948 -2.21325,0.0824 z m -11.21102,-7.35377 c -0.0683,-0.0268 -0.18219,-0.0804 -0.25318,-0.11926 -0.72285,-0.39536 -1.57365,-2.68886 -1.86166,-5.01852 -0.0976,-0.78865 -0.0974,-2.30596 2.4e-4,-3.12393 0.49162,-4.1192 2.68013,-7.73739 6.087,-10.06345 1.95619,-1.3356 4.17681,-2.14408 6.57672,-2.39444 0.59087,-0.0616 2.07245,-0.0616 2.62693,8e-5 2.37947,0.26471 4.49014,1.0073 6.32229,2.22431 0.84996,0.5646 1.14508,0.96282 1.14457,1.54444 -3.9e-4,0.44375 -0.1285,0.6992 -0.56883,1.13432 -0.37782,0.37334 -18.36331,15.30119 -18.73624,15.55098 -0.43137,0.28892 -0.99356,0.40048 -1.33784,0.26547 z" /></g></g></svg>
